<svg id="visual" viewBox="0 0 900 600" width="900" height="600" xmlns="http://www.w3.org/2000/svg" xmlns:xlink="http://www.w3.org/1999/xlink" version="1.1"><path d="M0 25L25 26C50 27 100 29 150 30C200 31 250 31 300 31C350 31 400 31 450 29C500 27 550 23 600 25C650 27 700 35 750 38C800 41 850 39 875 38L900 37L900 0L875 0C850 0 800 0 750 0C700 0 650 0 600 0C550 0 500 0 450 0C400 0 350 0 300 0C250 0 200 0 150 0C100 0 50 0 25 0L0 0Z" fill="#5f3c3c"></path><path d="M0 97L25 110C50 123 100 149 150 156C200 163 250 151 300 154C350 157 400 175 450 177C500 179 550 165 600 164C650 163 700 175 750 167C800 159 850 131 875 117L900 103L900 35L875 36C850 37 800 39 750 36C700 33 650 25 600 23C550 21 500 25 450 27C400 29 350 29 300 29C250 29 200 29 150 28C100 27 50 25 25 24L0 23Z" fill="#452929"></path><path d="M0 163L25 178C50 193 100 223 150 228C200 233 250 213 300 213C350 213 400 233 450 231C500 229 550 205 600 206C650 207 700 233 750 228C800 223 850 187 875 169L900 151L900 101L875 115C850 129 800 157 750 165C700 173 650 161 600 162C550 163 500 177 450 175C400 173 350 155 300 152C250 149 200 161 150 154C100 147 50 121 25 108L0 95Z" fill="#331c1c"></path><path d="M0 193L25 217C50 241 100 289 150 306C200 323 250 309 300 304C350 299 400 303 450 299C500 295 550 283 600 283C650 283 700 295 750 285C800 275 850 243 875 227L900 211L900 149L875 167C850 185 800 221 750 226C700 231 650 205 600 204C550 203 500 227 450 229C400 231 350 211 300 211C250 211 200 231 150 226C100 221 50 191 25 176L0 161Z" fill="#2b1919"></path><path d="M0 223L25 249C50 275 100 327 150 342C200 357 250 335 300 326C350 317 400 321 450 319C500 317 550 309 600 313C650 317 700 333 750 327C800 321 850 293 875 279L900 265L900 209L875 225C850 241 800 273 750 283C700 293 650 281 600 281C550 281 500 293 450 297C400 301 350 297 300 302C250 307 200 321 150 304C100 287 50 239 25 215L0 191Z" fill="#291818"></path><path d="M0 253L25 279C50 305 100 357 150 372C200 387 250 365 300 363C350 361 400 379 450 378C500 377 550 357 600 353C650 349 700 361 750 358C800 355 850 337 875 328L900 319L900 263L875 277C850 291 800 319 750 325C700 331 650 315 600 311C550 307 500 315 450 317C400 319 350 315 300 324C250 333 200 355 150 340C100 325 50 273 25 247L0 221Z" fill="#2b1919"></path><path d="M0 283L25 312C50 341 100 399 150 413C200 427 250 397 300 390C350 383 400 399 450 402C500 405 550 395 600 396C650 397 700 409 750 407C800 405 850 389 875 381L900 373L900 317L875 326C850 335 800 353 750 356C700 359 650 347 600 351C550 355 500 375 450 376C400 377 350 359 300 361C250 363 200 385 150 370C100 355 50 303 25 277L0 251Z" fill="#331c1c"></path><path d="M0 409L25 423C50 437 100 465 150 477C200 489 250 485 300 487C350 489 400 497 450 495C500 493 550 481 600 473C650 465 700 461 750 456C800 451 850 445 875 442L900 439L900 371L875 379C850 387 800 403 750 405C700 407 650 395 600 394C550 393 500 403 450 400C400 397 350 381 300 388C250 395 200 425 150 411C100 397 50 339 25 310L0 281Z" fill="#452929"></path><path d="M0 601L25 601C50 601 100 601 150 601C200 601 250 601 300 601C350 601 400 601 450 601C500 601 550 601 600 601C650 601 700 601 750 601C800 601 850 601 875 601L900 601L900 437L875 440C850 443 800 449 750 454C700 459 650 463 600 471C550 479 500 491 450 493C400 495 350 487 300 485C250 483 200 487 150 475C100 463 50 435 25 421L0 407Z" fill="#5f3c3c"></path></svg>