<svg id="visual" viewBox="0 0 900 600" width="900" height="600" xmlns="http://www.w3.org/2000/svg" xmlns:xlink="http://www.w3.org/1999/xlink" version="1.1"><g stroke-width="1" stroke-linejoin="bevel"><path d="M413 332L331.5 340L410 390Z" fill="#2d241d" stroke="#2d241d"></path><path d="M331.5 340L355.5 416L410 390Z" fill="#241c15" stroke="#241c15"></path><path d="M270 437L355.5 457L355.5 416Z" fill="#342b23" stroke="#342b23"></path><path d="M355.5 416L355.5 457L410 390Z" fill="#221a13" stroke="#221a13"></path><path d="M331.5 340L270 437L355.5 416Z" fill="#2b221b" stroke="#2b221b"></path><path d="M493 496L523.5 381L410 390Z" fill="#292019" stroke="#292019"></path><path d="M410 390L523.5 381L413 332Z" fill="#2f261f" stroke="#2f261f"></path><path d="M270 437L265 467L355.5 457Z" fill="#221a13" stroke="#221a13"></path><path d="M420 600L493 496L355.5 457Z" fill="#221a13" stroke="#221a13"></path><path d="M355.5 457L493 496L410 390Z" fill="#201811" stroke="#201811"></path><path d="M319.5 152L187 279L331.5 340Z" fill="#2b221b" stroke="#2b221b"></path><path d="M331.5 340L187 279L270 437Z" fill="#261e17" stroke="#261e17"></path><path d="M270 437L97.5 444L265 467Z" fill="#221a13" stroke="#221a13"></path><path d="M549.5 191L408 153L413 332Z" fill="#201811" stroke="#201811"></path><path d="M413 332L408 153L331.5 340Z" fill="#261e17" stroke="#261e17"></path><path d="M408 153L319.5 152L331.5 340Z" fill="#2b221b" stroke="#2b221b"></path><path d="M493 496L561.5 465L523.5 381Z" fill="#292019" stroke="#292019"></path><path d="M319.5 152L180 242L187 279Z" fill="#201811" stroke="#201811"></path><path d="M561.5 465L605.5 354L523.5 381Z" fill="#342b23" stroke="#342b23"></path><path d="M523.5 381L549.5 191L413 332Z" fill="#292019" stroke="#292019"></path><path d="M605.5 354L549.5 191L523.5 381Z" fill="#2d241d" stroke="#2d241d"></path><path d="M325.5 600L420 600L355.5 457Z" fill="#2f261f" stroke="#2f261f"></path><path d="M493 496L534.5 600L561.5 465Z" fill="#362d25" stroke="#362d25"></path><path d="M265 467L325.5 600L355.5 457Z" fill="#342b23" stroke="#342b23"></path><path d="M180 242L130.5 313L187 279Z" fill="#261e17" stroke="#261e17"></path><path d="M187 279L130.5 313L270 437Z" fill="#261e17" stroke="#261e17"></path><path d="M265 467L258 600L325.5 600Z" fill="#2f261f" stroke="#2f261f"></path><path d="M559.5 123L405 107L408 153Z" fill="#2d241d" stroke="#2d241d"></path><path d="M408 153L405 107L319.5 152Z" fill="#292019" stroke="#292019"></path><path d="M129.5 516L258 600L265 467Z" fill="#342b23" stroke="#342b23"></path><path d="M605.5 354L641 291L549.5 191Z" fill="#241c15" stroke="#241c15"></path><path d="M706 397L641 291L605.5 354Z" fill="#201811" stroke="#201811"></path><path d="M420 600L534.5 600L493 496Z" fill="#221a13" stroke="#221a13"></path><path d="M561.5 465L706 397L605.5 354Z" fill="#261e17" stroke="#261e17"></path><path d="M130.5 313L97.5 444L270 437Z" fill="#261e17" stroke="#261e17"></path><path d="M97.5 444L129.5 516L265 467Z" fill="#221a13" stroke="#221a13"></path><path d="M180 242L78.5 219L130.5 313Z" fill="#322921" stroke="#322921"></path><path d="M130.5 313L0 374L97.5 444Z" fill="#292019" stroke="#292019"></path><path d="M319.5 152L160.5 151L180 242Z" fill="#2b221b" stroke="#2b221b"></path><path d="M206 99L160.5 151L319.5 152Z" fill="#2d241d" stroke="#2d241d"></path><path d="M549.5 191L559.5 123L408 153Z" fill="#241c15" stroke="#241c15"></path><path d="M655 167L559.5 123L549.5 191Z" fill="#2d241d" stroke="#2d241d"></path><path d="M382.5 0L342.5 58L405 107Z" fill="#2f261f" stroke="#2f261f"></path><path d="M405 107L342.5 58L319.5 152Z" fill="#292019" stroke="#292019"></path><path d="M342.5 58L206 99L319.5 152Z" fill="#2d241d" stroke="#2d241d"></path><path d="M534.5 600L649 537L561.5 465Z" fill="#362d25" stroke="#362d25"></path><path d="M0 190L78.5 219L160.5 151Z" fill="#261e17" stroke="#261e17"></path><path d="M160.5 151L78.5 219L180 242Z" fill="#2f261f" stroke="#2f261f"></path><path d="M129.5 516L149.5 600L258 600Z" fill="#221a13" stroke="#221a13"></path><path d="M0 600L149.5 600L129.5 516Z" fill="#342b23" stroke="#342b23"></path><path d="M649 537L706 397L561.5 465Z" fill="#2d241d" stroke="#2d241d"></path><path d="M641 291L655 167L549.5 191Z" fill="#221a13" stroke="#221a13"></path><path d="M751.5 250L655 167L641 291Z" fill="#342b23" stroke="#342b23"></path><path d="M436 0L405 107L559.5 123Z" fill="#2b221b" stroke="#2b221b"></path><path d="M436 0L382.5 0L405 107Z" fill="#221a13" stroke="#221a13"></path><path d="M342.5 58L231 0L206 99Z" fill="#2d241d" stroke="#2d241d"></path><path d="M597.5 0L436 0L559.5 123Z" fill="#2b221b" stroke="#2b221b"></path><path d="M0 319L0 374L130.5 313Z" fill="#362d25" stroke="#362d25"></path><path d="M97.5 444L0 467L129.5 516Z" fill="#261e17" stroke="#261e17"></path><path d="M78.5 219L0 319L130.5 313Z" fill="#342b23" stroke="#342b23"></path><path d="M382.5 0L231 0L342.5 58Z" fill="#292019" stroke="#292019"></path><path d="M206 99L163.5 0L160.5 151Z" fill="#342b23" stroke="#342b23"></path><path d="M78.5 219L0 190L0 319Z" fill="#2b221b" stroke="#2b221b"></path><path d="M0 374L0 467L97.5 444Z" fill="#261e17" stroke="#261e17"></path><path d="M706 397L751.5 250L641 291Z" fill="#292019" stroke="#292019"></path><path d="M649 537L775.5 424L706 397Z" fill="#201811" stroke="#201811"></path><path d="M706 397L775.5 424L751.5 250Z" fill="#221a13" stroke="#221a13"></path><path d="M534.5 600L689 600L649 537Z" fill="#201811" stroke="#201811"></path><path d="M778.5 133L673 92L655 167Z" fill="#2b221b" stroke="#2b221b"></path><path d="M655 167L673 92L559.5 123Z" fill="#2b221b" stroke="#2b221b"></path><path d="M813.5 447L775.5 424L649 537Z" fill="#261e17" stroke="#261e17"></path><path d="M0 55L0 190L160.5 151Z" fill="#322921" stroke="#322921"></path><path d="M231 0L163.5 0L206 99Z" fill="#2f261f" stroke="#2f261f"></path><path d="M673 92L597.5 0L559.5 123Z" fill="#221a13" stroke="#221a13"></path><path d="M673 92L624 0L597.5 0Z" fill="#362d25" stroke="#362d25"></path><path d="M751.5 250L773.5 169L655 167Z" fill="#201811" stroke="#201811"></path><path d="M673 92L810.5 0L624 0Z" fill="#342b23" stroke="#342b23"></path><path d="M900 179L773.5 169L751.5 250Z" fill="#362d25" stroke="#362d25"></path><path d="M0 467L0 600L129.5 516Z" fill="#221a13" stroke="#221a13"></path><path d="M689 600L813.5 447L649 537Z" fill="#342b23" stroke="#342b23"></path><path d="M775.5 424L900 341L751.5 250Z" fill="#241c15" stroke="#241c15"></path><path d="M900 179L778.5 133L773.5 169Z" fill="#2b221b" stroke="#2b221b"></path><path d="M773.5 169L778.5 133L655 167Z" fill="#322921" stroke="#322921"></path><path d="M163.5 0L0 55L160.5 151Z" fill="#322921" stroke="#322921"></path><path d="M689 600L811.5 600L813.5 447Z" fill="#292019" stroke="#292019"></path><path d="M163.5 0L0 0L0 55Z" fill="#292019" stroke="#292019"></path><path d="M900 400L900 341L775.5 424Z" fill="#2d241d" stroke="#2d241d"></path><path d="M900 400L775.5 424L813.5 447Z" fill="#241c15" stroke="#241c15"></path><path d="M900 547L900 400L813.5 447Z" fill="#241c15" stroke="#241c15"></path><path d="M900 341L900 179L751.5 250Z" fill="#322921" stroke="#322921"></path><path d="M778.5 133L810.5 0L673 92Z" fill="#322921" stroke="#322921"></path><path d="M811.5 600L900 547L813.5 447Z" fill="#241c15" stroke="#241c15"></path><path d="M900 61L810.5 0L778.5 133Z" fill="#362d25" stroke="#362d25"></path><path d="M811.5 600L900 600L900 547Z" fill="#362d25" stroke="#362d25"></path><path d="M900 179L900 61L778.5 133Z" fill="#342b23" stroke="#342b23"></path><path d="M900 61L900 0L810.5 0Z" fill="#2b221b" stroke="#2b221b"></path></g></svg>