<svg id="visual" viewBox="0 0 900 600" width="900" height="600" xmlns="http://www.w3.org/2000/svg" xmlns:xlink="http://www.w3.org/1999/xlink" version="1.1"><g stroke-width="1" stroke-linejoin="bevel"><path d="M477 334L373.5 355L476 442Z" fill="#9a7654" stroke="#9a7654"></path><path d="M308.5 484L430 532L476 442Z" fill="#ba916c" stroke="#ba916c"></path><path d="M477 334L372.5 245L373.5 355Z" fill="#ba916c" stroke="#ba916c"></path><path d="M219 445L308.5 484L373.5 355Z" fill="#daad86" stroke="#daad86"></path><path d="M373.5 355L308.5 484L476 442Z" fill="#9a7654" stroke="#9a7654"></path><path d="M430 532L517.5 534L476 442Z" fill="#a07b59" stroke="#a07b59"></path><path d="M625 430L570.5 267L477 334Z" fill="#c79c76" stroke="#c79c76"></path><path d="M372.5 245L298.5 285L373.5 355Z" fill="#a7815d" stroke="#a7815d"></path><path d="M613.5 443L477 334L476 442Z" fill="#9a7654" stroke="#9a7654"></path><path d="M477 334L459 202L372.5 245Z" fill="#c79c76" stroke="#c79c76"></path><path d="M570.5 267L459 202L477 334Z" fill="#a07b59" stroke="#a07b59"></path><path d="M517.5 534L613.5 443L476 442Z" fill="#b48c67" stroke="#b48c67"></path><path d="M613.5 443L625 430L477 334Z" fill="#a7815d" stroke="#a7815d"></path><path d="M333.5 600L404 600L430 532Z" fill="#9a7654" stroke="#9a7654"></path><path d="M430 532L404 600L517.5 534Z" fill="#ba916c" stroke="#ba916c"></path><path d="M298.5 285L219 445L373.5 355Z" fill="#b48c67" stroke="#b48c67"></path><path d="M308.5 484L333.5 600L430 532Z" fill="#a7815d" stroke="#a7815d"></path><path d="M190 600L333.5 600L308.5 484Z" fill="#d4a781" stroke="#d4a781"></path><path d="M181 283L191 450L219 445Z" fill="#b48c67" stroke="#b48c67"></path><path d="M219 445L190 600L308.5 484Z" fill="#b48c67" stroke="#b48c67"></path><path d="M570.5 267L543.5 157L459 202Z" fill="#ba916c" stroke="#ba916c"></path><path d="M230 150L298.5 285L372.5 245Z" fill="#ba916c" stroke="#ba916c"></path><path d="M652 248L543.5 157L570.5 267Z" fill="#cda27b" stroke="#cda27b"></path><path d="M703 290L652 248L570.5 267Z" fill="#a7815d" stroke="#a7815d"></path><path d="M613.5 443L656 547L625 430Z" fill="#c79c76" stroke="#c79c76"></path><path d="M625 430L703 290L570.5 267Z" fill="#9a7654" stroke="#9a7654"></path><path d="M517.5 534L656 547L613.5 443Z" fill="#c79c76" stroke="#c79c76"></path><path d="M611.5 600L656 547L517.5 534Z" fill="#b48c67" stroke="#b48c67"></path><path d="M230 150L181 283L298.5 285Z" fill="#b48c67" stroke="#b48c67"></path><path d="M298.5 285L181 283L219 445Z" fill="#b48c67" stroke="#b48c67"></path><path d="M367.5 76L372.5 245L459 202Z" fill="#c79c76" stroke="#c79c76"></path><path d="M404 600L611.5 600L517.5 534Z" fill="#c09771" stroke="#c09771"></path><path d="M789.5 334L703 290L625 430Z" fill="#c09771" stroke="#c09771"></path><path d="M601.5 112L475 93L543.5 157Z" fill="#cda27b" stroke="#cda27b"></path><path d="M601.5 112L543.5 157L652 248Z" fill="#b48c67" stroke="#b48c67"></path><path d="M543.5 157L475 93L459 202Z" fill="#d4a781" stroke="#d4a781"></path><path d="M611.5 600L644 600L656 547Z" fill="#a7815d" stroke="#a7815d"></path><path d="M114.5 421L153.5 504L191 450Z" fill="#c79c76" stroke="#c79c76"></path><path d="M191 450L153.5 504L219 445Z" fill="#ba916c" stroke="#ba916c"></path><path d="M367.5 76L230 150L372.5 245Z" fill="#a07b59" stroke="#a07b59"></path><path d="M475 93L367.5 76L459 202Z" fill="#a07b59" stroke="#a07b59"></path><path d="M101.5 337L114.5 421L191 450Z" fill="#b48c67" stroke="#b48c67"></path><path d="M101.5 337L191 450L181 283Z" fill="#ba916c" stroke="#ba916c"></path><path d="M790.5 156L601.5 112L652 248Z" fill="#a7815d" stroke="#a7815d"></path><path d="M475 93L400 0L367.5 76Z" fill="#a7815d" stroke="#a7815d"></path><path d="M91.5 600L190 600L153.5 504Z" fill="#cda27b" stroke="#cda27b"></path><path d="M153.5 504L190 600L219 445Z" fill="#c79c76" stroke="#c79c76"></path><path d="M228 0L200 153L230 150Z" fill="#c09771" stroke="#c09771"></path><path d="M230 150L200 153L181 283Z" fill="#b48c67" stroke="#b48c67"></path><path d="M78.5 185L101.5 337L181 283Z" fill="#ad8662" stroke="#ad8662"></path><path d="M743.5 600L785.5 450L656 547Z" fill="#ad8662" stroke="#ad8662"></path><path d="M656 547L785.5 450L625 430Z" fill="#d4a781" stroke="#d4a781"></path><path d="M785.5 450L789.5 334L625 430Z" fill="#c09771" stroke="#c09771"></path><path d="M703 290L790.5 156L652 248Z" fill="#cda27b" stroke="#cda27b"></path><path d="M644 600L743.5 600L656 547Z" fill="#a7815d" stroke="#a7815d"></path><path d="M367.5 76L228 0L230 150Z" fill="#c09771" stroke="#c09771"></path><path d="M568.5 0L400 0L475 93Z" fill="#a7815d" stroke="#a7815d"></path><path d="M400 0L371.5 0L367.5 76Z" fill="#c79c76" stroke="#c79c76"></path><path d="M0 512L153.5 504L114.5 421Z" fill="#ad8662" stroke="#ad8662"></path><path d="M0 512L91.5 600L153.5 504Z" fill="#ad8662" stroke="#ad8662"></path><path d="M785.5 450L841.5 367L789.5 334Z" fill="#9a7654" stroke="#9a7654"></path><path d="M715 51L568.5 0L601.5 112Z" fill="#c09771" stroke="#c09771"></path><path d="M900 375L841.5 367L785.5 450Z" fill="#cda27b" stroke="#cda27b"></path><path d="M200 153L78.5 185L181 283Z" fill="#daad86" stroke="#daad86"></path><path d="M101.5 337L0 362L114.5 421Z" fill="#a7815d" stroke="#a7815d"></path><path d="M108.5 84L78.5 185L200 153Z" fill="#b48c67" stroke="#b48c67"></path><path d="M790.5 156L703 290L789.5 334Z" fill="#a7815d" stroke="#a7815d"></path><path d="M601.5 112L568.5 0L475 93Z" fill="#daad86" stroke="#daad86"></path><path d="M900 200L790.5 156L789.5 334Z" fill="#b48c67" stroke="#b48c67"></path><path d="M0 335L0 362L101.5 337Z" fill="#a7815d" stroke="#a7815d"></path><path d="M900 98L790.5 135L790.5 156Z" fill="#a07b59" stroke="#a07b59"></path><path d="M790.5 156L715 51L601.5 112Z" fill="#c79c76" stroke="#c79c76"></path><path d="M0 215L0 335L101.5 337Z" fill="#c09771" stroke="#c09771"></path><path d="M790.5 135L715 51L790.5 156Z" fill="#a07b59" stroke="#a07b59"></path><path d="M371.5 0L228 0L367.5 76Z" fill="#a7815d" stroke="#a7815d"></path><path d="M166.5 0L108.5 84L200 153Z" fill="#ba916c" stroke="#ba916c"></path><path d="M78.5 185L0 215L101.5 337Z" fill="#cda27b" stroke="#cda27b"></path><path d="M0 362L0 512L114.5 421Z" fill="#cda27b" stroke="#cda27b"></path><path d="M841.5 367L900 326L789.5 334Z" fill="#ad8662" stroke="#ad8662"></path><path d="M900 523L900 375L785.5 450Z" fill="#cda27b" stroke="#cda27b"></path><path d="M0 107L0 215L78.5 185Z" fill="#a7815d" stroke="#a7815d"></path><path d="M900 375L900 326L841.5 367Z" fill="#cda27b" stroke="#cda27b"></path><path d="M228 0L166.5 0L200 153Z" fill="#b48c67" stroke="#b48c67"></path><path d="M108.5 84L0 107L78.5 185Z" fill="#ba916c" stroke="#ba916c"></path><path d="M767.5 0L710 0L715 51Z" fill="#b48c67" stroke="#b48c67"></path><path d="M715 51L710 0L568.5 0Z" fill="#b48c67" stroke="#b48c67"></path><path d="M0 512L0 600L91.5 600Z" fill="#ad8662" stroke="#ad8662"></path><path d="M743.5 600L900 523L785.5 450Z" fill="#b48c67" stroke="#b48c67"></path><path d="M900 326L900 200L789.5 334Z" fill="#ad8662" stroke="#ad8662"></path><path d="M790.5 135L767.5 0L715 51Z" fill="#cda27b" stroke="#cda27b"></path><path d="M900 98L767.5 0L790.5 135Z" fill="#daad86" stroke="#daad86"></path><path d="M743.5 600L900 600L900 523Z" fill="#d4a781" stroke="#d4a781"></path><path d="M0 0L0 107L108.5 84Z" fill="#a7815d" stroke="#a7815d"></path><path d="M900 200L900 98L790.5 156Z" fill="#c79c76" stroke="#c79c76"></path><path d="M166.5 0L0 0L108.5 84Z" fill="#b48c67" stroke="#b48c67"></path><path d="M900 98L900 0L767.5 0Z" fill="#a07b59" stroke="#a07b59"></path></g></svg>