<svg id="visual" viewBox="0 0 900 600" width="900" height="600" xmlns="http://www.w3.org/2000/svg" xmlns:xlink="http://www.w3.org/1999/xlink" version="1.1"><path d="M0 31L25 30C50 29 100 27 150 26C200 25 250 25 300 29C350 33 400 41 450 40C500 39 550 29 600 26C650 23 700 27 750 32C800 37 850 43 875 46L900 49L900 0L875 0C850 0 800 0 750 0C700 0 650 0 600 0C550 0 500 0 450 0C400 0 350 0 300 0C250 0 200 0 150 0C100 0 50 0 25 0L0 0Z" fill="#97bad1"></path><path d="M0 73L25 73C50 73 100 73 150 73C200 73 250 73 300 73C350 73 400 73 450 69C500 65 550 57 600 58C650 59 700 69 750 76C800 83 850 87 875 89L900 91L900 47L875 44C850 41 800 35 750 30C700 25 650 21 600 24C550 27 500 37 450 38C400 39 350 31 300 27C250 23 200 23 150 24C100 25 50 27 25 28L0 29Z" fill="#78a8c4"></path><path d="M0 169L25 175C50 181 100 193 150 193C200 193 250 181 300 170C350 159 400 149 450 138C500 127 550 115 600 114C650 113 700 123 750 137C800 151 850 169 875 178L900 187L900 89L875 87C850 85 800 81 750 74C700 67 650 57 600 56C550 55 500 63 450 67C400 71 350 71 300 71C250 71 200 71 150 71C100 71 50 71 25 71L0 71Z" fill="#5e92b1"></path><path d="M0 199L25 204C50 209 100 219 150 226C200 233 250 237 300 232C350 227 400 213 450 199C500 185 550 171 600 171C650 171 700 185 750 195C800 205 850 211 875 214L900 217L900 185L875 176C850 167 800 149 750 135C700 121 650 111 600 112C550 113 500 125 450 136C400 147 350 157 300 168C250 179 200 191 150 191C100 191 50 179 25 173L0 167Z" fill="#4c7892"></path><path d="M0 253L25 254C50 255 100 257 150 262C200 267 250 275 300 279C350 283 400 283 450 267C500 251 550 219 600 216C650 213 700 239 750 253C800 267 850 269 875 270L900 271L900 215L875 212C850 209 800 203 750 193C700 183 650 169 600 169C550 169 500 183 450 197C400 211 350 225 300 230C250 235 200 231 150 224C100 217 50 207 25 202L0 197Z" fill="#49738c"></path><path d="M0 289L25 291C50 293 100 297 150 301C200 305 250 309 300 314C350 319 400 325 450 311C500 297 550 263 600 262C650 261 700 293 750 309C800 325 850 325 875 325L900 325L900 269L875 268C850 267 800 265 750 251C700 237 650 211 600 214C550 217 500 249 450 265C400 281 350 281 300 277C250 273 200 265 150 260C100 255 50 253 25 252L0 251Z" fill="#4c7892"></path><path d="M0 481L25 478C50 475 100 469 150 463C200 457 250 451 300 448C350 445 400 445 450 447C500 449 550 453 600 457C650 461 700 465 750 465C800 465 850 461 875 459L900 457L900 323L875 323C850 323 800 323 750 307C700 291 650 259 600 260C550 261 500 295 450 309C400 323 350 317 300 312C250 307 200 303 150 299C100 295 50 291 25 289L0 287Z" fill="#5e92b1"></path><path d="M0 553L25 555C50 557 100 561 150 564C200 567 250 569 300 571C350 573 400 575 450 572C500 569 550 561 600 559C650 557 700 561 750 562C800 563 850 561 875 560L900 559L900 455L875 457C850 459 800 463 750 463C700 463 650 459 600 455C550 451 500 447 450 445C400 443 350 443 300 446C250 449 200 455 150 461C100 467 50 473 25 476L0 479Z" fill="#78a8c4"></path><path d="M0 601L25 601C50 601 100 601 150 601C200 601 250 601 300 601C350 601 400 601 450 601C500 601 550 601 600 601C650 601 700 601 750 601C800 601 850 601 875 601L900 601L900 557L875 558C850 559 800 561 750 560C700 559 650 555 600 557C550 559 500 567 450 570C400 573 350 571 300 569C250 567 200 565 150 562C100 559 50 555 25 553L0 551Z" fill="#97bad1"></path></svg>