<svg id="visual" viewBox="0 0 900 600" width="900" height="600" xmlns="http://www.w3.org/2000/svg" xmlns:xlink="http://www.w3.org/1999/xlink" version="1.1"><rect width="900" height="600" fill="#daad86"></rect><g><g transform="translate(403 167)"><path d="M0 -144.1L124.8 -72L124.8 72L0 144.1L-124.8 72L-124.8 -72Z" fill="#9a5d0c"></path></g><g transform="translate(46 477)"><path d="M0 -92L79.7 -46L79.7 46L0 92L-79.7 46L-79.7 -46Z" fill="#9a5d0c"></path></g><g transform="translate(870 358)"><path d="M0 -137L118.6 -68.5L118.6 68.5L0 137L-118.6 68.5L-118.6 -68.5Z" fill="#9a5d0c"></path></g><g transform="translate(722 14)"><path d="M0 -61L52.8 -30.5L52.8 30.5L0 61L-52.8 30.5L-52.8 -30.5Z" fill="#9a5d0c"></path></g></g></svg>